<svg width="120" height="49" viewBox="0 0 120 49" fill="none" xmlns="http://www.w3.org/2000/svg">
<path d="M0.0213972 3.71057C1.0484 3.71057 2.0968 3.71057 3.16659 3.71057C3.16659 4.79814 3.16659 5.84306 3.16659 6.88799C3.16659 7.93291 3.16659 8.97783 3.16659 10.0228C3.18799 10.0228 3.20939 10.0441 3.23078 10.0441C5.13502 7.93291 7.01786 5.82174 8.92209 3.71057C10.2486 3.71057 11.5752 3.71057 12.9659 3.71057C10.9761 5.82174 9.00767 7.91159 7.01785 10.0014C9.11465 12.795 11.2114 15.5886 13.3296 18.4035C11.9603 18.4035 10.6338 18.4035 9.28582 18.4035C7.8095 16.3563 6.31179 14.2877 4.81408 12.2192C4.27918 12.7737 3.74428 13.3281 3.1452 13.9465C3.1452 15.3327 3.1452 16.8467 3.1452 18.4248C2.0968 18.4248 1.0484 18.4248 0 18.4248C0.0213959 13.5414 0.0213972 8.63663 0.0213972 3.71057Z" fill="#C31D28"/>
<path d="M49.2105 0.0213263C49.7668 0.106626 50.3231 0.127947 50.8794 0.277222C53.7678 1.08757 55.8004 2.81489 56.5921 5.75774C57.3623 8.6366 56.1428 11.6434 53.5967 13.3921C52.0134 14.4796 50.2589 14.9275 48.3547 14.8422C48.2905 14.8422 48.2477 14.8208 48.1621 14.8208C48.1621 13.648 48.1621 12.4751 48.1621 11.3022C48.2691 11.2382 48.3975 11.2809 48.5258 11.2809C49.6812 11.3235 50.7296 11.025 51.6496 10.3213C53.6395 8.76455 53.5967 6.01363 51.5855 4.52089C50.644 3.81716 49.5528 3.53994 48.3761 3.60391C48.3119 3.60391 48.2477 3.60391 48.2049 3.60391C48.2049 3.60391 48.1835 3.60391 48.1621 3.58259C48.1621 2.43104 48.1621 1.25817 48.1621 0.0852985C48.2691 0.0639735 48.3761 0.0426499 48.5044 0C48.7398 0.0213249 48.9752 0.0213263 49.2105 0.0213263Z" fill="#C31D28"/>
<path d="M34.0191 3.79584C35.0889 3.79584 36.0945 3.79584 37.1215 3.79584C37.1215 8.70058 37.1215 13.584 37.1215 18.4887C36.2015 18.4887 35.2815 18.4887 34.3401 18.4887C32.0079 15.3966 29.6758 12.2618 27.3436 9.1484C27.3222 9.1484 27.3008 9.1484 27.2794 9.16973C27.2794 12.2618 27.2794 15.3753 27.2794 18.4887C26.231 18.4887 25.2468 18.4887 24.2412 18.4887C24.2412 13.584 24.2412 8.70058 24.2412 3.79584C25.204 3.79584 26.1668 3.79584 27.1724 3.79584C29.419 6.80265 31.687 9.8308 33.955 12.8589C33.9763 12.8589 34.0191 12.8376 34.0405 12.8376C34.0191 9.8308 34.0191 6.80265 34.0191 3.79584Z" fill="#C31D28"/>
<path d="M90.6758 3.77448C90.7828 3.77448 90.8683 3.77448 90.9539 3.77448C93.2433 3.77448 95.5326 3.77448 97.8006 3.77448C98.8062 3.77448 99.769 3.9664 100.646 4.49953C101.951 5.3312 102.615 6.56804 102.829 8.06079C103.192 10.5771 101.737 12.3898 100.004 13.2001C99.9616 13.2214 99.8974 13.2428 99.8546 13.3067C100.432 14.1597 100.989 15.0127 101.566 15.8657C102.123 16.7187 102.7 17.5504 103.299 18.446C102.016 18.446 100.796 18.446 99.5337 18.446C98.4853 16.8893 97.4369 15.3113 96.3671 13.7332C95.5754 13.7332 94.7838 13.7332 93.9707 13.7332C93.9707 15.3113 93.9707 16.8893 93.9707 18.4887C92.8582 18.4887 91.7884 18.4887 90.6758 18.4887C90.6758 13.6053 90.6758 8.72186 90.6758 3.77448ZM93.9493 10.9823C94.9336 10.9823 95.8964 10.9823 96.8592 10.9823C97.0517 10.9823 97.2443 10.9823 97.4155 10.961C99.3197 10.7691 99.7048 9.42559 99.4695 8.18874C99.3197 7.33574 98.6564 6.95189 97.8862 6.80262C96.581 6.54672 95.2759 6.67467 93.9707 6.67467C93.9707 6.67467 93.9494 6.67467 93.928 6.696C93.9494 8.10344 93.9493 9.53221 93.9493 10.9823Z" fill="#303030"/>
<path d="M109.761 13.9892C109.761 15.3753 109.761 16.9107 109.761 18.4461C108.712 18.4461 107.685 18.4461 106.637 18.4461C106.637 13.5413 106.637 8.63661 106.637 3.73187C107.685 3.73187 108.691 3.73187 109.739 3.73187C109.739 5.84304 109.739 7.93289 109.739 10.0441C109.761 10.0441 109.782 10.0654 109.803 10.0654C111.708 7.95421 113.612 5.82172 115.516 3.73187C116.864 3.73187 118.191 3.73187 119.581 3.73187C117.57 5.86437 115.602 7.95421 113.633 10.0441C115.73 12.8376 117.827 15.6312 119.924 18.4461C118.554 18.4461 117.228 18.4461 115.88 18.4461C114.403 16.3989 112.906 14.3517 111.408 12.2832C110.873 12.8376 110.36 13.3708 109.761 13.9892Z" fill="#303030"/>
<path d="M63.0109 14.0958C63.0109 15.5885 63.0109 17.0386 63.0109 18.51C61.8983 18.51 60.8285 18.51 59.7373 18.51C59.7373 13.6053 59.7373 8.72188 59.7373 3.83847C59.8229 3.75317 59.9299 3.79582 60.0154 3.79582C62.0695 3.79582 64.1449 3.79582 66.1989 3.79582C69.0231 3.79582 70.9916 5.67242 71.2697 8.44466C71.5906 11.4302 69.1301 14.0531 66.0919 14.0958C65.1719 14.1171 64.2518 14.0958 63.3104 14.0958C63.2248 14.0958 63.1393 14.0958 63.0109 14.0958ZM63.0323 11.1529C63.0751 11.1742 63.0965 11.1742 63.1179 11.1742C64.0379 11.1742 64.9579 11.1956 65.8779 11.1529C67.1617 11.0889 67.7822 10.4705 67.9319 9.21235C68.0817 7.99683 67.5468 7.20781 66.4128 6.95191C66.2631 6.90926 66.0919 6.88793 65.9421 6.86661C65.0863 6.78131 64.209 6.84529 63.3532 6.82396C63.2462 6.82396 63.1393 6.80263 63.0109 6.86661C63.0323 8.29538 63.0323 9.72415 63.0323 11.1529Z" fill="#303030"/>
<path d="M87.3809 18.5101C86.2469 18.5101 85.1343 18.5101 84.0217 18.5101C83.5938 17.4225 83.1659 16.3562 82.738 15.2687C80.684 15.2687 78.63 15.2687 76.5332 15.2687C76.1267 16.3349 75.7201 17.4225 75.2922 18.5101C74.2224 18.5101 73.1526 18.5101 72.04 18.5101C74.0726 13.584 76.1053 8.67925 78.1379 3.79584C79.1649 3.79584 80.1705 3.79584 81.2403 3.79584C83.2943 8.67925 85.3269 13.584 87.3809 18.5101ZM81.5398 12.3685C80.9193 10.7904 80.3202 9.27635 79.6998 7.69831C79.0579 9.27635 78.416 10.8117 77.7955 12.3685C79.0579 12.3685 80.2775 12.3685 81.5398 12.3685Z" fill="#303030"/>
<path d="M48.2257 18.8726C48.2257 20.0455 48.2257 21.2184 48.2257 22.3912C48.2043 22.4339 48.1402 22.4552 48.0974 22.4552C44.4815 22.6898 41.1437 20.6213 39.9883 17.4012C38.8757 14.3304 40.0311 10.9611 42.834 9.04181C44.3745 7.99688 46.0862 7.54906 47.9262 7.61303C47.9904 7.61303 48.0546 7.61303 48.1402 7.63436C48.183 7.63436 48.2043 7.65569 48.2471 7.65569C48.2471 8.82856 48.2471 10.0014 48.2471 11.1956C47.6267 11.1317 47.0062 11.153 46.4071 11.3236C45.3587 11.6008 44.5029 12.1552 43.9038 13.0722C42.8126 14.6929 43.2191 16.7614 44.8452 17.9556C45.6154 18.5314 46.5141 18.83 47.4769 18.8513C47.6908 18.8726 47.9476 18.8726 48.2257 18.8726Z" fill="#303030"/>
<path d="M16.3672 18.4887C16.3672 13.584 16.3672 8.70058 16.3672 3.79584C17.437 3.79584 18.4854 3.79584 19.5552 3.79584C19.5552 8.67925 19.5552 13.584 19.5552 18.4887C18.5068 18.4887 17.437 18.4887 16.3672 18.4887Z" fill="#C31D28"/>
<g clip-path="url(#clip0)">
<path d="M120 26.2392C119.64 26.2607 119.355 26.4053 119.123 26.677C118.108 27.8673 117.078 29.0474 116.06 30.2367C114.627 31.9124 113.197 33.5908 111.771 35.2717C111.715 35.3377 111.663 35.4064 111.604 35.4809C111.631 35.5268 111.66 35.5714 111.692 35.6145C112.979 37.1823 114.267 38.7494 115.556 40.316C115.852 40.6755 116.178 41.0016 116.7 41.0518V41.2524H112.102L112.088 41.0727C112.179 41.0385 112.258 41.0101 112.332 40.9756C112.579 40.8601 112.673 40.6465 112.533 40.424C112.357 40.1535 112.164 39.8927 111.957 39.6428C111.38 38.9275 110.799 38.2173 110.219 37.5054C110.172 37.4477 110.121 37.393 110.056 37.3188C109.993 37.3821 109.937 37.4303 109.891 37.4849C109.305 38.1707 108.72 38.8571 108.136 39.544C105.921 42.1356 103.706 44.7276 101.491 47.3199C101.371 47.4615 101.265 47.614 101.176 47.7751C101.018 48.0612 101.14 48.3192 101.464 48.4204C101.531 48.4412 101.599 48.4593 101.668 48.4791V48.6657H97.2125L97.1963 48.5154C97.2179 48.4925 97.2248 48.4781 97.2323 48.4768C97.7898 48.3865 98.0842 47.9764 98.4039 47.6025C100.96 44.6131 103.514 41.6223 106.067 38.6302C106.891 37.6653 107.71 36.6977 108.526 35.7273C108.562 35.6836 108.596 35.6371 108.641 35.579C108.481 35.3797 108.326 35.1853 108.169 34.9929C107.059 33.6338 105.948 32.2747 104.838 30.9154C104.569 30.5846 104.267 30.3122 103.777 30.3208L103.767 30.0986H108.441L108.456 30.2955C108.362 30.3423 108.276 30.3792 108.193 30.4267C107.962 30.5634 107.881 30.7876 108.003 31.0159C108.098 31.1931 108.211 31.3616 108.339 31.5193C108.908 32.2243 109.485 32.9239 110.06 33.6248C110.093 33.6645 110.132 33.7004 110.183 33.7554C110.228 33.7089 110.269 33.672 110.305 33.6306C111.852 31.815 113.398 29.9988 114.944 28.1821C115.252 27.8188 115.548 27.4459 115.845 27.0744C115.894 27.0097 115.933 26.9387 115.962 26.8636C116.043 26.662 115.975 26.4726 115.775 26.3667C115.667 26.3093 115.545 26.2744 115.415 26.2242V26.0304C115.491 26.0256 115.566 26.0164 115.641 26.0164C117.016 26.0164 118.391 26.0164 119.766 26.0164C119.843 26.0164 119.921 26.0065 119.998 26.0013L120 26.2392Z" fill="#DEB246"/>
<path d="M20.0801 30.3352V30.0737H24.0927V30.3154C24.0891 30.3191 24.083 30.3314 24.0736 30.3345C23.6365 30.4678 23.6494 30.8218 23.9406 31.1103C24.4555 31.6206 24.9714 32.1298 25.4884 32.6379C27.1033 34.2307 28.718 35.8236 30.3327 37.4166C30.3734 37.457 30.4076 37.5028 30.4451 37.5462L30.4985 37.5281V37.3356C30.4985 35.2684 30.4927 33.2004 30.5035 31.1338C30.5057 30.7333 30.4408 30.4114 29.9514 30.3444V30.0765H33.4206V30.3157C33.4111 30.3257 33.3999 30.3341 33.3875 30.3406C32.9273 30.5245 32.8739 30.5997 32.8739 31.0672C32.8739 34.1202 32.8724 37.1732 32.8693 40.2262C32.8693 40.625 32.9349 40.947 33.4217 41.028V41.2973H29.71V41.0423C29.7525 41.0252 29.8026 41.0081 29.8505 40.9849C30.053 40.8895 30.1172 40.7115 29.9965 40.5314C29.9121 40.4062 29.8147 40.2894 29.7057 40.1828C27.5147 38.0332 25.3221 35.8848 23.128 33.7377C23.0967 33.7069 23.0603 33.6806 22.9983 33.6283C22.9983 33.7206 22.9983 33.7807 22.9983 33.8405C22.9983 35.9649 23.0037 38.0892 22.9936 40.2132C22.9918 40.6178 23.0556 40.947 23.5511 41.028V41.2911H20.0848V41.0382C20.1186 41.0252 20.1568 41.0098 20.1958 40.9955C20.5233 40.8752 20.6203 40.7501 20.6206 40.4196C20.6206 37.2589 20.6219 34.0981 20.6246 30.9373C20.6249 30.5768 20.4098 30.4199 20.0801 30.3352Z" fill="#303030"/>
<path d="M42.0129 41.5156C40.8958 41.5013 39.8032 41.3704 38.7812 40.9281C36.6771 40.0174 35.4937 38.4484 35.2447 36.2769C35.0454 34.538 35.5812 32.9991 36.8356 31.7073C37.7171 30.7996 38.8389 30.2938 40.0994 30.0566C41.7117 29.7532 43.3229 29.7538 44.8735 30.3078C47.2007 31.1393 48.5589 32.7418 48.7935 35.1081C49.0194 37.3866 48.111 39.2047 46.1189 40.5047C45.2252 41.0877 44.1956 41.3413 43.1279 41.4469C42.7567 41.4814 42.3841 41.492 42.0129 41.5156ZM42.0612 39.5888C42.1823 39.583 42.3448 39.5806 42.5059 39.5666C43.7474 39.4576 44.756 38.9514 45.467 37.9672C46.1041 37.0865 46.294 36.1029 46.1427 35.0531C46.0389 34.332 45.7629 33.683 45.2616 33.1235C43.982 31.695 41.7578 31.4831 40.2432 32.1068C37.5102 33.2329 37.4165 36.2027 38.4086 37.744C39.2292 39.016 40.4742 39.5745 42.0612 39.5871V39.5888Z" fill="#303030"/>
<path d="M80.0136 31.9202V34.5801H80.2162C81.6753 34.5801 83.1351 34.5715 84.5935 34.5856C85.0122 34.5897 85.3387 34.5206 85.4223 34.0685H85.7077V36.8958H85.4245C85.3409 36.4044 84.9686 36.3675 84.5351 36.3712C83.112 36.3835 81.6882 36.376 80.2659 36.376H80.0187V39.4446H80.2648C82.6367 39.4446 85.0086 39.4398 87.3805 39.449C87.8039 39.449 88.1603 39.4053 88.2338 38.9265H88.5175V41.8194H88.2594C88.2513 41.8127 88.2443 41.8047 88.2389 41.7959C88.0421 41.3458 87.9809 41.3072 87.4598 41.3072H76.8749V41.0279C77.3639 40.9497 77.4154 40.6178 77.4154 40.2146C77.4056 37.1793 77.4056 34.1441 77.4154 31.1089C77.4154 30.7152 77.3376 30.4145 76.8691 30.3468V30.0669H77.0951C80.4517 30.0669 83.8084 30.0684 87.165 30.0713C87.5888 30.0713 87.9441 30.0262 88.0252 29.5491H88.3077V32.4407H88.0555C88.0515 32.4373 88.0378 32.4311 88.0353 32.4219C87.9203 32.0118 87.6223 31.9134 87.2036 31.9158C84.8857 31.9284 82.5679 31.9219 80.2486 31.9219L80.0136 31.9202Z" fill="#303030"/>
<path d="M7.8609 30.3205V30.0765H12.6822V30.3403C12.3074 30.3745 12.0494 30.6137 11.7751 30.8225C10.1624 32.0556 8.55051 33.2897 6.93946 34.5251C6.90342 34.5531 6.86919 34.5845 6.8227 34.6245C7.1182 34.9618 7.40829 35.2933 7.6991 35.6248L11.591 40.0645C11.6411 40.1216 11.6926 40.177 11.7445 40.2323C12.089 40.6011 12.4267 40.9791 12.996 41.0273V41.2959H8.37694V41.0474C8.46631 41.0133 8.5636 40.9859 8.65297 40.9429C8.8364 40.8543 8.87243 40.7474 8.76324 40.5837C8.66074 40.4294 8.54871 40.2811 8.42775 40.1394C7.29141 38.8136 6.15351 37.4892 5.01405 36.1662C4.98811 36.1361 4.95856 36.1084 4.92036 36.0691L3.14234 37.4296C3.14234 37.6487 3.14234 37.8698 3.14234 38.0913C3.14234 38.8089 3.14234 39.5266 3.14234 40.2443C3.14234 40.7747 3.17838 40.8294 3.69189 41.0481V41.2976H0.0144144V41.0461C0.0204817 41.0393 0.0278101 41.0336 0.036036 41.0293C0.500901 40.8489 0.54955 40.7805 0.54955 40.3058C0.54955 37.23 0.54955 34.1543 0.54955 31.0785C0.54955 30.5806 0.507027 30.5211 0.00900901 30.3266C0.00612613 30.287 0.000720721 30.2429 0 30.1985C0 30.1599 0.00396396 30.1212 0.00684685 30.0737H3.69297V30.313C3.68432 30.3215 3.67748 30.3328 3.66775 30.3365C3.20324 30.5101 3.1427 30.5942 3.1427 31.0717C3.1427 32.2564 3.1427 33.4411 3.1427 34.6259C3.1427 34.6867 3.1427 34.7475 3.1427 34.8467C3.22703 34.7838 3.2818 34.7441 3.33514 34.7024C4.88348 33.5031 6.43207 32.3032 7.9809 31.1027C8.089 31.0218 8.18769 30.9301 8.27532 30.8293C8.40901 30.6691 8.37441 30.533 8.1827 30.4387C8.07787 30.3936 7.97043 30.3541 7.8609 30.3205Z" fill="#303030"/>
<path d="M50.7052 41.2945C50.6977 41.2649 50.6922 41.2349 50.6886 41.2046C50.6861 41.154 50.6886 41.1021 50.6886 41.0679C50.711 41.045 50.7178 41.0337 50.7275 41.0296C51.1319 40.9271 51.2508 40.6698 51.2493 40.2873C51.239 37.2239 51.239 34.1604 51.2493 31.0969C51.2493 30.7066 51.1528 30.4209 50.7002 30.3427V30.0737C50.7603 30.0706 50.8133 30.0655 50.8663 30.0655C53.3821 30.0655 55.8979 30.0664 58.4137 30.0682C59.0688 30.0682 59.7228 30.1106 60.3571 30.2828C61.8749 30.6953 62.7715 31.8699 62.751 33.4331C62.7365 34.5906 62.2778 35.5366 61.2237 36.1733C60.7225 36.4761 60.1535 36.6067 59.5704 36.6589C59.0335 36.7068 58.4926 36.7328 57.9535 36.7372C56.6627 36.7481 55.3715 36.7406 54.0807 36.7406H53.8382V36.9505C53.8382 38.0441 53.8486 39.1377 53.8328 40.2313C53.827 40.6329 53.8969 40.9517 54.3802 41.0289V41.2952L50.7052 41.2945ZM53.8447 34.8784C53.8976 34.8815 53.9326 34.8856 53.9679 34.8856C55.3373 34.8856 56.7066 34.8928 58.076 34.8777C58.427 34.874 58.7798 34.8135 59.1265 34.7526C59.5142 34.6843 59.7729 34.4471 59.9423 34.1156C60.0741 33.8519 60.1308 33.56 60.1066 33.2691C60.063 32.5951 59.649 32.1273 58.9535 32.0176C58.5687 31.9579 58.1797 31.9266 57.7899 31.9239C56.5409 31.9127 55.2919 31.9198 54.0421 31.9198H53.8436L53.8447 34.8784Z" fill="#303030"/>
<path d="M102.365 30.101L102.354 30.3187C101.924 30.3215 101.669 30.573 101.429 30.8526C100.441 32.0059 99.4514 33.1582 98.4609 34.3097C98.1766 34.641 97.8936 34.9731 97.6118 35.3059C97.5636 35.3627 97.5196 35.4228 97.4641 35.4942C97.694 35.7741 97.9156 36.0475 98.1398 36.3209C99.2209 37.6374 100.302 38.9534 101.383 40.2689C101.693 40.6448 102.02 41.0047 102.569 41.0515V41.2542H97.9736L97.9549 41.0778C98.0338 41.0453 98.1048 41.018 98.1744 40.9876C98.449 40.8676 98.543 40.6493 98.3935 40.4029C98.2543 40.1837 98.1002 39.9734 97.9322 39.7733C97.3076 39.0003 96.6804 38.2294 96.0508 37.4607C96.0147 37.417 95.9729 37.3777 95.9185 37.3202C95.8601 37.379 95.8104 37.4228 95.7654 37.475C95.0672 38.2953 94.3705 39.1155 93.6753 39.9357C93.5778 40.0513 93.4894 40.1735 93.4108 40.3014C93.1996 40.6431 93.3254 40.9312 93.7254 41.0354C93.7711 41.0474 93.818 41.0563 93.8789 41.0696V41.2559H89.4032L89.3877 41.0604C89.9935 41.019 90.2774 40.5819 90.5989 40.206C91.8808 38.7068 93.1569 37.2031 94.4273 35.6949C94.4533 35.6641 94.4742 35.6299 94.5095 35.5804C94.4291 35.4778 94.3491 35.3753 94.2659 35.2728C93.124 33.8718 91.9819 32.4706 90.8396 31.0692C90.7675 30.9793 90.685 30.8949 90.6122 30.8044C90.3747 30.5084 90.0691 30.3286 89.6562 30.3153V30.0963H94.3189L94.3304 30.2958C94.2518 30.3324 94.1762 30.3642 94.1044 30.4021C93.8385 30.5436 93.7495 30.7781 93.8814 31.0391C93.9556 31.1821 94.0451 31.3175 94.1484 31.4431C94.7447 32.179 95.3441 32.9125 95.9466 33.6437C95.9751 33.6778 96.01 33.7086 96.058 33.7568C96.1124 33.6987 96.1607 33.6515 96.2043 33.6003C96.7992 32.8997 97.3953 32.1991 97.9863 31.4957C98.1066 31.3536 98.2142 31.2023 98.3081 31.0433C98.4904 30.7305 98.3913 30.4964 98.0381 30.3679C97.9715 30.344 97.903 30.3252 97.8259 30.2996V30.101H102.365Z" fill="#DEB246"/>
<path d="M64.293 41.3071V41.043C64.3351 41.0269 64.3733 41.0115 64.4123 40.9972C64.7384 40.8772 64.8353 40.7504 64.8353 40.4203C64.8353 37.2657 64.8368 34.1112 64.8396 30.9568C64.8396 30.5901 64.6371 30.4199 64.2959 30.3362V30.0751H67.9798V30.3143C67.9683 30.3239 67.9607 30.3345 67.9506 30.3382C67.4966 30.5026 67.4313 30.5925 67.4313 31.0583C67.4313 33.7695 67.4313 36.4799 67.4313 39.1893V39.4285C67.5229 39.434 67.6032 39.4429 67.6836 39.4429C69.9539 39.4429 72.2241 39.4388 74.4923 39.4477C74.9114 39.4477 75.2569 39.395 75.329 38.9261H75.6123V41.8174H75.36C75.3535 41.8122 75.3398 41.8071 75.3359 41.7979C75.1355 41.3447 75.0775 41.3071 74.5589 41.3071H64.293Z" fill="#303030"/>
<path d="M17.9435 41.031V41.2952H14.253L14.2422 41.0645C14.2571 41.0502 14.2736 41.0376 14.2916 41.0269C14.7553 40.8396 14.8054 40.7675 14.8054 40.2829C14.8054 37.23 14.8015 34.1772 14.8101 31.1239C14.8101 30.7265 14.7294 30.4185 14.2537 30.3417V30.0795H17.942V30.3266C17.9168 30.3362 17.8908 30.3475 17.8638 30.3567C17.4844 30.4876 17.3993 30.601 17.3993 30.99C17.3993 33.0405 17.3993 35.091 17.3993 37.1415C17.3993 38.1668 17.4105 39.192 17.3939 40.2173C17.3867 40.6226 17.4483 40.9517 17.9435 41.031Z" fill="#303030"/>
</g>
<defs>
<clipPath id="clip0">
<rect width="120" height="23" fill="white" transform="translate(0 26)"/>
</clipPath>
</defs>
</svg>
